<svg width="6536" height="566" viewBox="0 0 6536 566" fill="none" xmlns="http://www.w3.org/2000/svg">
<path d="M124.632 558H0.0692198L189.867 8.20506H339.664L529.193 558H404.63L266.913 133.842H262.618L124.632 558ZM116.847 341.894H411.073V432.632H116.847V341.894ZM790.265 558H595.367V8.20506H791.876C847.178 8.20506 894.784 19.2117 934.694 41.225C974.604 63.0593 1005.3 94.4684 1026.77 135.453C1048.43 176.437 1059.26 225.474 1059.26 282.566C1059.26 339.836 1048.43 389.053 1026.77 430.216C1005.3 471.379 974.425 502.967 934.157 524.98C894.068 546.993 846.104 558 790.265 558ZM711.608 458.403H785.433C819.795 458.403 848.699 452.318 872.144 440.148C895.768 427.8 913.486 408.739 925.298 382.968C937.289 357.017 943.284 323.55 943.284 282.566C943.284 241.939 937.289 208.741 925.298 182.969C913.486 157.197 895.857 138.227 872.412 126.057C848.967 113.887 820.064 107.802 785.701 107.802H711.608V458.403ZM1145.36 558V8.20506H1515.83V104.043H1261.6V235.049H1496.77V330.887H1261.6V462.162H1516.9V558H1145.36ZM1608.25 558V8.20506H1724.49V462.162H1960.19V558H1608.25ZM2037.17 558V8.20506H2407.64V104.043H2153.41V235.049H2388.58V330.887H2153.41V462.162H2408.71V558H2037.17ZM2849.98 558V8.20506H2966.22V462.162H3201.93V558H2849.98ZM3762.73 283.103C3762.73 343.057 3751.36 394.064 3728.63 436.122C3706.08 478.18 3675.3 510.305 3636.29 532.497C3597.45 554.51 3553.78 565.517 3505.28 565.517C3456.42 565.517 3412.57 554.421 3373.74 532.228C3334.9 510.036 3304.21 477.911 3281.66 435.853C3259.11 393.795 3247.83 342.878 3247.83 283.103C3247.83 223.148 3259.11 172.141 3281.66 130.083C3304.21 88.0256 3334.9 55.99 3373.74 33.9767C3412.57 11.7845 3456.42 0.68833 3505.28 0.68833C3553.78 0.68833 3597.45 11.7845 3636.29 33.9767C3675.3 55.99 3706.08 88.0256 3728.63 130.083C3751.36 172.141 3762.73 223.148 3762.73 283.103ZM3644.88 283.103C3644.88 244.266 3639.06 211.515 3627.43 184.848C3615.97 158.182 3599.78 137.958 3578.84 124.177C3557.9 110.397 3533.38 103.506 3505.28 103.506C3477.18 103.506 3452.66 110.397 3431.72 124.177C3410.78 137.958 3394.5 158.182 3382.87 184.848C3371.41 211.515 3365.68 244.266 3365.68 283.103C3365.68 321.939 3371.41 354.69 3382.87 381.357C3394.5 408.023 3410.78 428.247 3431.72 442.028C3452.66 455.808 3477.18 462.699 3505.28 462.699C3533.38 462.699 3557.9 455.808 3578.84 442.028C3599.78 428.247 3615.97 408.023 3627.43 381.357C3639.06 354.69 3644.88 321.939 3644.88 283.103ZM4023.8 558V8.20506H4387.82V104.043H4140.04V235.049H4363.66V330.887H4140.04V558H4023.8ZM4466.01 558V8.20506H4836.48V104.043H4582.25V235.049H4817.42V330.887H4582.25V462.162H4837.55V558H4466.01ZM5268.49 8.20506H5384.73V365.25C5384.73 405.339 5375.16 440.417 5356.01 470.484C5337.03 500.551 5310.46 523.996 5276.27 540.819C5242.09 557.463 5202.27 565.785 5156.81 565.785C5111.17 565.785 5071.26 557.463 5037.08 540.819C5002.9 523.996 4976.32 500.551 4957.35 470.484C4938.38 440.417 4928.89 405.339 4928.89 365.25V8.20506H5045.14V355.317C5045.14 376.256 5049.7 394.869 5058.83 411.155C5068.13 427.442 5081.2 440.238 5098.02 449.544C5114.84 458.851 5134.44 463.504 5156.81 463.504C5179.36 463.504 5198.96 458.851 5215.6 449.544C5232.43 440.238 5245.4 427.442 5254.53 411.155C5263.84 394.869 5268.49 376.256 5268.49 355.317V8.20506ZM5675.27 558H5480.37V8.20506H5676.88C5732.18 8.20506 5779.78 19.2117 5819.69 41.225C5859.6 63.0593 5890.3 94.4684 5911.77 135.453C5933.43 176.437 5944.26 225.474 5944.26 282.566C5944.26 339.836 5933.43 389.053 5911.77 430.216C5890.3 471.379 5859.43 502.967 5819.16 524.98C5779.07 546.993 5731.1 558 5675.27 558ZM5596.61 458.403H5670.43C5704.8 458.403 5733.7 452.318 5757.14 440.148C5780.77 427.8 5798.49 408.739 5810.3 382.968C5822.29 357.017 5828.29 323.55 5828.29 282.566C5828.29 241.939 5822.29 208.741 5810.3 182.969C5798.49 157.197 5780.86 138.227 5757.41 126.057C5733.97 113.887 5705.06 107.802 5670.7 107.802H5596.61V458.403ZM6535.6 283.103C6535.6 343.057 6524.23 394.064 6501.5 436.122C6478.95 478.18 6448.17 510.305 6409.15 532.497C6370.32 554.51 6326.65 565.517 6278.15 565.517C6229.29 565.517 6185.44 554.421 6146.6 532.228C6107.77 510.036 6077.08 477.911 6054.52 435.853C6031.97 393.795 6020.7 342.878 6020.7 283.103C6020.7 223.148 6031.97 172.141 6054.52 130.083C6077.08 88.0256 6107.77 55.99 6146.6 33.9767C6185.44 11.7845 6229.29 0.68833 6278.15 0.68833C6326.65 0.68833 6370.32 11.7845 6409.15 33.9767C6448.17 55.99 6478.95 88.0256 6501.5 130.083C6524.23 172.141 6535.6 223.148 6535.6 283.103ZM6417.74 283.103C6417.74 244.266 6411.93 211.515 6400.29 184.848C6388.84 158.182 6372.64 137.958 6351.7 124.177C6330.76 110.397 6306.25 103.506 6278.15 103.506C6250.05 103.506 6225.53 110.397 6204.59 124.177C6183.65 137.958 6167.37 158.182 6155.73 184.848C6144.28 211.515 6138.55 244.266 6138.55 283.103C6138.55 321.939 6144.28 354.69 6155.73 381.357C6167.37 408.023 6183.65 428.247 6204.59 442.028C6225.53 455.808 6250.05 462.699 6278.15 462.699C6306.25 462.699 6330.76 455.808 6351.7 442.028C6372.64 428.247 6388.84 408.023 6400.29 381.357C6411.93 354.69 6417.74 321.939 6417.74 283.103Z" fill="black"/>
</svg>
